# xmcd
#
# Track frame offsets:
#	150
#	20560
#	38770
#	56977
#	74382
#	93800
#	111202
#	125565
#	141927
#	159280
#	175695
#	190770
#	205692
#
# Disc length: 2964 seconds
#
# Revision: 0
# Processed by: cddbd v1.5.2PL0 Copyright (c) Steve Scherf et al.
# Submitted via: dBpowerAMP V4.0
#
DISCID=b00b920d
DTITLE=Dj akman Remi night music - kapak olsun remi night music
DYEAR=2006
DGENRE=Country
TTITLE0=aþkýn derya oldu
TTITLE1=sýrlarla dolu
TTITLE2=bir fidan gibi
TTITLE3=gamzedeyim
TTITLE4=savaþ
TTITLE5=yetim
TTITLE6=alemin adamý
TTITLE7=ne oldu sana usta
TTITLE8=serseri hayat
TTITLE9=hayat bir bulmaca
TTITLE10=discoda eðlence
TTITLE11=hayat oyun
TTITLE12=kalleþçe yazýlmýþ senaryom
EXTD=dk akman 2006
EXTT0=
EXTT1=
EXTT2=
EXTT3=
EXTT4=
EXTT5=
EXTT6=
EXTT7=
EXTT8=
EXTT9=
EXTT10=
EXTT11=
EXTT12=
PLAYORDER=
